<?xml version="1.0" encoding="UTF-8"?>
<svg width="40px" height="40px" viewBox="0 0 40 40" version="1.1" xmlns="http://www.w3.org/2000/svg" xmlns:xlink="http://www.w3.org/1999/xlink">
    <!-- Generator: Sketch 54.1 (76490) - https://sketchapp.com -->
    <title>icon/facebook</title>
    <desc>Created with Sketch.</desc>
    <g id="icon/facebook" stroke="none" stroke-width="1" fill="none" fill-rule="evenodd">
        <path d="M12.5428015,21.5758 L16.231789,21.5758 L16.231789,36.4677419 C16.231789,36.7617613 16.474747,37 16.7745905,37 L23.0294007,37 C23.3292442,37 23.5722022,36.7617613 23.5722022,36.4677419 L23.5722022,21.6459516 L27.8130017,21.6459516 C28.0887449,21.6459516 28.3207382,21.4430548 28.3522207,21.1744774 L28.9963089,15.6920065 C29.0140043,15.5411645 28.9652607,15.3901097 28.8623455,15.2769516 C28.7593218,15.1636871 28.6118969,15.0988581 28.4571985,15.0988581 L23.5724193,15.0988581 L23.5724193,11.6621742 C23.5724193,10.6261871 24.1412753,10.1008484 25.2633545,10.1008484 C25.4232638,10.1008484 28.4571985,10.1008484 28.4571985,10.1008484 C28.7570421,10.1008484 29,9.86250323 29,9.56859032 L29,4.53619677 C29,4.24217742 28.7570421,4.00393871 28.4571985,4.00393871 L24.0556212,4.00393871 C24.0245729,4.00244839 23.9556372,4 23.8540247,4 C23.090303,4 20.435678,4.14700968 18.3387273,6.03865484 C16.0153198,8.1349 16.3382867,10.6448161 16.415473,11.0799903 L16.415473,15.0987516 L12.5428015,15.0987516 C12.2429579,15.0987516 12,15.3369903 12,15.6310097 L12,21.0434355 C12,21.3374548 12.2429579,21.5758 12.5428015,21.5758 Z" id="XMLID_835_" fill="#FFFFFF" fill-rule="nonzero"></path>
    </g>
</svg>