<?xml version="1.0" encoding="UTF-8"?>
<svg width="40px" height="40px" viewBox="0 0 40 40" version="1.1" xmlns="http://www.w3.org/2000/svg" xmlns:xlink="http://www.w3.org/1999/xlink">
    <!-- Generator: Sketch 54.1 (76490) - https://sketchapp.com -->
    <title>icon/instagram</title>
    <desc>Created with Sketch.</desc>
    <g id="icon/instagram" stroke="none" stroke-width="1" fill="none" fill-rule="evenodd">
        <path d="M27.4375,2 C33.8223125,2 39,7.1776875 39,13.5625 L39,27.4375 C39,33.8223125 33.8223125,39 27.4375,39 L13.5625,39 C7.1776875,39 2,33.8223125 2,27.4375 L2,13.5625 C2,7.1776875 7.1776875,2 13.5625,2 L27.4375,2 Z M35.53125,27.4375 L35.53125,13.5625 C35.53125,9.099375 31.900625,5.46875 27.4375,5.46875 L13.5625,5.46875 C9.099375,5.46875 5.46875,9.099375 5.46875,13.5625 L5.46875,27.4375 C5.46875,31.900625 9.099375,35.53125 13.5625,35.53125 L27.4375,35.53125 C31.900625,35.53125 35.53125,31.900625 35.53125,27.4375 Z M20.5,11.25 C25.6083125,11.25 29.75,15.3916875 29.75,20.5 C29.75,25.6083125 25.6083125,29.75 20.5,29.75 C15.3916875,29.75 11.25,25.6083125 11.25,20.5 C11.25,15.3916875 15.3916875,11.25 20.5,11.25 Z M20.5,26.28125 C23.686625,26.28125 26.28125,23.686625 26.28125,20.5 C26.28125,17.3110625 23.686625,14.71875 20.5,14.71875 C17.313375,14.71875 14.71875,17.3110625 14.71875,20.5 C14.71875,23.686625 17.313375,26.28125 20.5,26.28125 Z M30.44375,11.7888125 C29.7630245,11.7888125 29.2111875,11.2369755 29.2111875,10.55625 C29.2111875,9.87552453 29.7630245,9.3236875 30.44375,9.3236875 C31.1244755,9.3236875 31.6763125,9.87552453 31.6763125,10.55625 C31.6763125,11.2369755 31.1244755,11.7888125 30.44375,11.7888125 Z" id="Combined-Shape" fill="#FFFFFF" fill-rule="nonzero"></path>
    </g>
</svg>