<?xml version="1.0" encoding="UTF-8"?>
<svg width="40px" height="40px" viewBox="0 0 40 40" version="1.1" xmlns="http://www.w3.org/2000/svg" xmlns:xlink="http://www.w3.org/1999/xlink">
    <!-- Generator: Sketch 54.1 (76490) - https://sketchapp.com -->
    <title>icon/twitter</title>
    <desc>Created with Sketch.</desc>
    <g id="icon/twitter" stroke="none" stroke-width="1" fill="none" fill-rule="evenodd">
        <path d="M38,8.54947206 C36.6381922,9.15180269 35.1769921,9.56029643 33.6417314,9.74266725 C35.2093369,8.80564814 36.4092997,7.31940441 36.9780245,5.55387141 C35.5075744,6.42161132 33.8844688,7.05170191 32.1550182,7.39327002 C30.7701156,5.9185527 28.8002252,5 26.615287,5 C22.4235187,5 19.0247729,8.39256798 19.0247729,12.5744238 C19.0247729,13.1675213 19.0918204,13.7467991 19.2213206,14.3007308 C12.9140195,13.9845087 7.32114595,10.9681485 3.57791271,6.38467852 C2.92357994,7.50171488 2.5513424,8.80329458 2.5513424,10.1926802 C2.5513424,12.8213667 3.89235277,15.1407711 5.92699334,16.49775 C4.68307791,16.4562308 3.5131626,16.1146627 2.48895015,15.5469113 L2.48895015,15.6415365 C2.48895015,19.3110402 5.10622076,22.3735665 8.57660879,23.0705827 C7.94077605,23.2413668 7.2703011,23.335992 6.57667088,23.335992 C6.08654099,23.335992 5.61255329,23.2875328 5.1478156,23.1952007 C6.11423058,26.2069746 8.9165015,28.3971142 12.2366523,28.4571602 C9.64017915,30.4881024 6.36627838,31.6951173 2.81034283,31.6951173 C2.19766536,31.6951173 1.59417744,31.6581845 1,31.5912588 C4.3594483,33.744526 8.34777671,35 12.6343425,35 C26.5969078,35 34.2290772,23.4560236 34.2290772,13.4445173 L34.2036245,12.4636858 C35.6948721,11.4019883 36.9849771,10.0680622 38,8.54947206 Z" id="Path" fill="#FFFFFF" fill-rule="nonzero"></path>
    </g>
</svg>