<?xml version="1.0" encoding="UTF-8"?>
<svg width="40px" height="40px" viewBox="0 0 40 40" version="1.1" xmlns="http://www.w3.org/2000/svg" xmlns:xlink="http://www.w3.org/1999/xlink">
    <!-- Generator: Sketch 54.1 (76490) - https://sketchapp.com -->
    <title>icon/youtube</title>
    <desc>Created with Sketch.</desc>
    <g id="icon/youtube" stroke="none" stroke-width="1" fill="none" fill-rule="evenodd">
        <path d="M37.5578355,8.40360093 C36.2222548,6.69638715 33.7563839,6 29.0471194,6 L11.9525226,6 C7.13548065,6 4.62783548,6.74130708 3.29726774,8.55889552 C2,10.3310507 2,12.9421816 2,16.5560536 L2,23.4440747 C2,30.445294 3.5392,34 11.9525226,34 L29.0472387,34 C33.1310839,34 35.3940516,33.3854954 36.8580581,31.8788812 C38.3594226,30.3338925 39,27.811318 39,23.4440747 L39,16.5560536 C39,12.744919 38.8996226,10.1183869 37.5578355,8.40360093 Z M25.7541194,20.9510189 L17.9915194,25.3135136 C17.8179774,25.411054 17.6282032,25.4594391 17.4386677,25.4594391 C17.2240677,25.4594391 17.0099452,25.3973213 16.8202903,25.2738557 C16.4631806,25.0411705 16.2451194,24.6249553 16.2451194,24.1760128 L16.2451194,15.4790022 C16.2451194,15.0308297 16.4625839,14.6149996 16.8189774,14.382186 C17.1754903,14.1493725 17.6188935,14.133458 17.9887742,14.3400897 L25.7513742,18.6744772 C26.1463194,18.8949699 26.3943387,19.3333883 26.3949355,19.8117213 C26.3954129,20.2904394 26.1484677,20.7294996 25.7541194,20.9510189 Z" id="XMLID_823_" fill="#FFFFFF" fill-rule="nonzero"></path>
    </g>
</svg>